#!OML:ASF G:\JayActor3\Patient Classification 1\Patient 1\Session 5\male.ASF
:FULLY-SPECIFIED
:DEGREES
1010
root 62.9816 16.1615 -5.32082 827.563 99.8369 828.648
lowerback -1.69213 1.39839 11.9082
upperback 0.301038 1.63252 0.757098
thorax 1.57962 0.931211 -5.82959
lowerneck -6.32239 1.49955 2.16386
upperneck 10.1098 1.72565 1.24377
head 4.48597 1.02721 0.137859
rclavicle -2.3233e-015 -3.49861e-014
rhumerus -33.1297 -4.01092 -89.1711
rradius 25.8801
rwrist 3.98366
rhand -19.7028 -9.2189
rfingers 7.12502
rthumb 6.62671 320.905
lclavicle -2.3233e-015 -3.49861e-014
lhumerus -37.7987 22.0738 72.8816
lradius 15.9745
lwrist 7.05978
lhand -17.3586 12.0315
lfingers 7.12502
lthumb 8.88932 41.8243
rfemur 19.3621 -2.30805 31.4554
rtibia 18.7663
rfoot -0.469397 -7.91861
rtoes -10.1095
lfemur -18.0719 11.6827 -13.3976
ltibia 22.0748
lfoot 4.18371 -7.34895
ltoes -16.7351
1011
root 63.1289 16.157 -5.33534 829.549 99.627 830.699
lowerback -1.7758 1.40655 11.554
upperback 0.280918 1.63846 0.658392
thorax 1.59938 0.930256 -5.73402
lowerneck -6.33146 1.52028 2.1858
upperneck 10.204 1.74965 1.26039
head 4.52243 1.04249 0.141945
rclavicle 1.19644e-014 -3.69739e-014
rhumerus -33.3817 -4.42645 -88.9494
rradius 25.5961
rwrist 4.21385
rhand -19.7247 -9.18253
rfingers 7.12502
rthumb 6.60557 320.94
lclavicle 1.19644e-014 -3.69739e-014
lhumerus -38.0069 22.318 72.5543
lradius 15.83
lwrist 6.82154
lhand -17.3395 12.0804
lfingers 7.12502
lthumb 8.90778 41.8724
rfemur 18.9905 -2.05151 31.0333
rtibia 20.1867
rfoot 0.0285328 -8.43958
rtoes -9.35945
lfemur -17.4648 12.0999 -13.7129
ltibia 22.2171
lfoot 3.42368 -7.65579
ltoes -16.5582
1012
root 63.2731 16.1531 -5.3498 831.634 99.3792 832.852
lowerback -1.84036 1.41102 11.1579
upperback 0.265248 1.64336 0.544529
thorax 1.61204 0.928199 -5.63109
lowerneck -6.35985 1.53053 2.20078
upperneck 10.31 1.75956 1.27623
head 4.56704 1.05072 0.146489
rclavicle -1.14674e-014 5.1684e-015
rhumerus -33.6289 -4.85573 -88.7167
rradius 25.3337
rwrist 4.39159
rhand -19.7885 -9.12063
rfingers 7.12502
rthumb 6.54399 321
lclavicle -1.14674e-014 5.1684e-015
lhumerus -38.1743 22.543 72.2535
lradius 15.6977
lwrist 6.5948
lhand -17.3218 12.1275
lfingers 7.12502
lthumb 8.92484 41.9188
rfemur 18.5044 -1.836 30.5414
rtibia 21.7771
rfoot 0.599255 -8.96116
rtoes -8.55518
lfemur -16.8417 12.4626 -14.0636
ltibia 22.3058
lfoot 2.75387 -7.98815
ltoes -16.2888
1013
root 63.4136 16.1496 -5.36406 833.819 99.1102 835.103
lowerback -1.89433 1.4082 10.7335
upperback 0.2584 1.64074 0.420331
thorax 1.62609 0.922608 -5.52331
lowerneck -6.40867 1.53549 2.22213
upperneck 10.4148 1.76224 1.27806
head 4.61568 1.05483 0.144926
rclavicle -1.46107e-014 1.59028e-015
rhumerus -33.8615 -5.29372 -88.4771
rradius 25.1036
rwrist 4.55589
rhand -19.8473 -9.05997
rfingers 7.12502
rthumb 6.48728 321.059
lclavicle -1.46107e-014 1.59028e-015
lhumerus -38.2904 22.7561 71.9802
lradius 15.5822
lwrist 6.3846
lhand -17.2925 12.1823
lfingers 7.12502
lthumb 8.95307 41.9723
rfemur 17.8966 -1.67038 29.9945
rtibia 23.5355
rfoot 1.27038 -9.46142
rtoes -7.58138
lfemur -16.2104 12.787 -14.4363
ltibia 22.3351
lfoot 2.17395 -8.34485
ltoes -15.8059
1014
root 63.5504 16.1461 -5.37805 836.153 98.8256 837.511
lowerback -1.92132 1.40065 10.2816
upperback 0.261593 1.63595 0.287833
thorax 1.63452 0.91584 -5.40894
lowerneck -6.46156 1.5405 2.24762
upperneck 10.5065 1.76545 1.26859
head 4.66066 1.05852 0.138741
rclavicle -7.46685e-015 -3.22031e-014
rhumerus -34.0772 -5.70883 -88.243
rradius 24.9019
rwrist 4.67688
rhand -19.9077 -9.00277
rfingers 7.12502
rthumb 6.42897 321.115
lclavicle -7.46685e-015 -3.22031e-014
lhumerus -38.3551 22.9094 71.7671
lradius 15.5017
lwrist 6.23995
lhand -17.2695 12.2435
lfingers 7.12502
lthumb 8.97533 42.0326
rfemur 17.1892 -1.55806 29.3902
rtibia 25.4477
rfoot 2.03641 -9.92835
rtoes -6.37567
lfemur -15.5553 13.0811 -14.8279
ltibia 22.3055
lfoot 1.67214 -8.72027
ltoes -15.2418
1015
root 63.6833 16.1427 -5.39072 838.695 98.5368 840.134
lowerback -1.90765 1.38979 9.79567
upperback 0.265268 1.63284 0.151895
thorax 1.6199 0.908607 -5.27956
lowerneck -6.50335 1.54525 2.26912
upperneck 10.5822 1.76927 1.25731
head 4.69748 1.06197 0.132422
rclavicle 2.19906e-014 2.70347e-014
rhumerus -34.2952 -6.09067 -88.0168
rradius 24.7459
rwrist 4.76885
rhand -19.9278 -8.9841
rfingers 7.12502
rthumb 6.40954 321.133
lclavicle 2.19906e-014 2.70347e-014
lhumerus -38.3758 22.9145 71.6637
lradius 15.4848
lwrist 6.26146
lhand -17.2401 12.3228
lfingers 7.12502
lthumb 9.00368 42.1106
rfemur 16.3858 -1.48437 28.749
rtibia 27.5026
rfoot 2.8939 -10.381
rtoes -4.91073
lfemur -14.8747 13.3426 -15.2279
ltibia 22.2123
lfoot 1.2477 -9.09134
ltoes -14.5581
1016
root 63.8124 16.1394 -5.40171 841.428 98.2629 842.962
lowerback -1.85731 1.36906 9.2795
upperback 0.27945 1.62087 0.0208951
thorax 1.59315 0.896684 -5.12858
lowerneck -6.55134 1.55448 2.29983
upperneck 10.644 1.77909 1.23363
head 4.73087 1.06777 0.120536
rclavicle -1.87106e-014 -1.43125e-014
rhumerus -34.4948 -6.42197 -87.8123
rradius 24.6333
rwrist 4.84647
rhand -19.9051 -9.00398
rfingers 7.12502
rthumb 6.43139 321.114
lclavicle -1.87106e-014 -1.43125e-014
lhumerus -38.3438 22.7849 71.6723
lradius 15.5376
lwrist 6.46107
lhand -17.2197 12.4258
lfingers 7.12502
lthumb 9.02337 42.2128
rfemur 15.497 -1.44214 28.0949
rtibia 29.6833
rfoot 3.81845 -10.8235
rtoes -3.24126
lfemur -14.1595 13.567 -15.617
ltibia 22.0483
lfoot 0.895898 -9.43997
ltoes -13.8438
1017
root 63.9371 16.1365 -5.41092 844.433 97.9944 846.066
lowerback -1.75445 1.34341 8.72102
upperback 0.285371 1.60874 -0.109598
thorax 1.52704 0.88257 -4.95411
lowerneck -6.56416 1.56935 2.3288
upperneck 10.6768 1.79875 1.20304
head 4.74645 1.07748 0.106598
rclavicle 1.70706e-014 1.15295e-014
rhumerus -34.6948 -6.68775 -87.6352
rradius 24.5568
rwrist 4.87557
rhand -19.8671 -9.03208
rfingers 7.12502
rthumb 6.46809 321.087
lclavicle 1.70706e-014 1.15295e-014
lhumerus -38.287 22.5501 71.7586
lradius 15.647
lwrist 6.78572
lhand -17.1974 12.537
lfingers 7.12502
lthumb 9.04484 42.323
rfemur 14.5169 -1.42385 27.4172
rtibia 31.9705
rfoot 4.79711 -11.2788
rtoes -1.68495
lfemur -13.4223 13.7523 -16.0181
ltibia 21.8105
lfoot 0.619095 -9.75931
ltoes -13.2877
1018
root 64.0577 16.1345 -5.41854 847.73 97.7404 849.461
lowerback -1.60333 1.31327 8.12519
upperback 0.283067 1.59515 -0.236381
thorax 1.42403 0.866134 -4.7555
lowerneck -6.5543 1.58629 2.34718
upperneck 10.6868 1.82292 1.17478
head 4.74886 1.08868 0.0951921
rclavicle 7.10655e-015 0
rhumerus -34.8956 -6.88391 -87.4854
rradius 24.5194
rwrist 4.86142
rhand -19.8216 -9.05318
rfingers 7.12502
rthumb 6.512 321.067
lclavicle 7.10655e-015 0
lhumerus -38.2116 22.2365 71.911
lradius 15.8125
lwrist 7.20871
lhand -17.1962 12.6372
lfingers 7.12502
lthumb 9.04598 42.4232
rfemur 13.4478 -1.42306 26.7219
rtibia 34.3386
rfoot 5.82415 -11.7648
rtoes -0.237062
lfemur -12.6682 13.9167 -16.4322
ltibia 21.5024
lfoot 0.410026 -10.0358
ltoes -12.9545
1019
root 64.1741 16.1337 -5.42476 851.335 97.5083 853.157
lowerback -1.41803 1.27868 7.49799
upperback 0.272796 1.57746 -0.361054
thorax 1.29234 0.84681 -4.53756
lowerneck -6.51946 1.60932 2.3654
upperneck 10.6728 1.85689 1.14014
head 4.73739 1.10395 0.0817819
rclavicle -1.65985e-014 1.98785e-015
rhumerus -35.0855 -7.00669 -87.3726
rradius 24.5151
rwrist 4.81067
rhand -19.7752 -9.08636
rfingers 7.12502
rthumb 6.55687 321.035
lclavicle -1.65985e-014 1.98785e-015
lhumerus -38.115 21.8935 72.0968
lradius 16.014
lwrist 7.67343
lhand -17.204 12.7403
lfingers 7.12502
lthumb 9.0385 42.5267
rfemur 12.2903 -1.42493 26.0176
rtibia 36.7564
rfoot 6.91441 -12.3067
rtoes 1.05144
lfemur -11.9103 14.0814 -16.8618
ltibia 21.1266
lfoot 0.2332 -10.2651
ltoes -12.5256
1020
root 64.2866 16.1339 -5.42993 855.185 97.3086 857.094
lowerback -1.20761 1.2457 6.85842
upperback 0.262345 1.56138 -0.482115
thorax 1.14658 0.828643 -4.30889
lowerneck -6.4731 1.62945 2.37455
upperneck 10.6417 1.8884 1.10454
head 4.71716 1.11727 0.0692371
rclavicle 5.70264e-015 -4.37326e-015
rhumerus -35.2506 -7.06845 -87.2899
rradius 24.5269
rwrist 4.72915
rhand -19.7358 -9.11317
rfingers 7.12502
rthumb 6.59486 321.01
lclavicle 5.70264e-015 -4.37326e-015
lhumerus -37.9876 21.5538 72.3018
lradius 16.233
lwrist 8.12498
lhand -17.2438 12.8193
lfingers 7.12502
lthumb 9.00012 42.6073
rfemur 11.067 -1.42653 25.3132
rtibia 39.1908
rfoot 8.05835 -12.9239
rtoes 2.34833
lfemur -11.1445 14.2511 -17.297
ltibia 20.6934
lfoot 0.101114 -10.4532
ltoes -12.3645
1021
root 64.3954 16.1357 -5.43462 859.131 97.1533 861.121
lowerback -0.988032 1.21242 6.23377
upperback 0.260516 1.54194 -0.59642
thorax 1.00487 0.810246 -4.08136
lowerneck -6.42377 1.65147 2.37867
upperneck 10.5951 1.9235 1.06384
head 4.69069 1.1316 0.055908
rclavicle -1.76421e-014 -1.31198e-014
rhumerus -35.3762 -7.07059 -87.2394
rradius 24.5533
rwrist 4.62786
rhand -19.698 -9.13467
rfingers 7.12502
rthumb 6.63141 320.989
lclavicle -1.76421e-014 -1.31198e-014
lhumerus -37.8126 21.2226 72.5277
lradius 16.4612
lwrist 8.55441
lhand -17.3043 12.8741
lfingers 7.12502
lthumb 8.94172 42.6647
rfemur 9.7906 -1.45695 24.6096
rtibia 41.6052
rfoot 9.29865 -13.5913
rtoes 3.84258
lfemur -10.38 14.409 -17.7205
ltibia 20.2193
lfoot -0.002373 -10.5807
ltoes -12.327
1022
root 64.5007 16.1387 -5.43886 863.028 97.0503 865.097
lowerback -0.763251 1.17818 5.63923
upperback 0.273689 1.5177 -0.701439
thorax 0.876221 0.791269 -3.8608
lowerneck -6.38253 1.67574 2.38276
upperneck 10.5392 1.96191 1.0161
head 4.66259 1.147 0.040389
rclavicle -1.37907e-014 -4.77083e-015
rhumerus -35.4538 -7.03889 -87.2141
rradius 24.5896
rwrist 4.54767
rhand -19.6773 -9.14485
rfingers 7.12502
rthumb 6.65135 320.98
lclavicle -1.37907e-014 -4.77083e-015
lhumerus -37.5835 20.926 72.7588
lradius 16.6908
lwrist 8.92993
lhand -17.3742 12.9126
lfingers 7.12502
lthumb 8.87428 42.706
rfemur 8.48104 -1.49732 23.934
rtibia 43.9695
rfoot 10.6424 -14.3109
rtoes 5.49636
lfemur -9.61937 14.5383 -18.116
ltibia 19.7242
lfoot -0.0626025 -10.661
ltoes -12.2909
1023
root 64.6029 16.1429 -5.44302 866.685 96.9993 868.831
lowerback -0.53407 1.14198 5.09699
upperback 0.298469 1.48747 -0.795432
thorax 0.758026 0.770817 -3.65801
lowerneck -6.35303 1.69824 2.38377
upperneck 10.487 1.99808 0.965147
head 4.63833 1.16105 0.0243482
rclavicle -2.21272e-014 0
rhumerus -35.4913 -6.9641 -87.2167
rradius 24.6289
rwrist 4.47897
rhand -19.6732 -9.13215
rfingers 7.12502
rthumb 6.65527 320.992
lclavicle -2.21272e-014 0
lhumerus -37.3057 20.6059 73.0205
lradius 16.9288
lwrist 9.30156
lhand -17.4691 12.9121
lfingers 7.12502
lthumb 8.78266 42.7093
rfemur 7.15442 -1.55237 23.3013
rtibia 46.2588
rfoot 12.0922 -15.0885
rtoes 7.1622
lfemur -8.87542 14.6156 -18.4675
ltibia 19.2386
lfoot -0.0864945 -10.6762
ltoes -12.1633
